<svg xmlns="http://www.w3.org/2000/svg" width="330.001" height="47.409" viewBox="0 0 330.001 47.409">
  <path id="Union_11" data-name="Union 11" d="M-961.427,282.189a16.007,16.007,0,0,1-6.435-6.347,19.478,19.478,0,0,1-2.323-9.711,19.508,19.508,0,0,1,2.291-9.679,15.844,15.844,0,0,1,6.4-6.314,19.573,19.573,0,0,1,9.461-2.221,19.709,19.709,0,0,1,9.363,2.157,15.589,15.589,0,0,1,6.371,6.188A18.846,18.846,0,0,1-934,265.75a22.549,22.549,0,0,1-.191,2.92h-23.638a6.546,6.546,0,0,0,1.624,4.348,4.977,4.977,0,0,0,3.663,1.427,4.594,4.594,0,0,0,4.461-2.793h13.315a15.521,15.521,0,0,1-3.217,6.569A16.587,16.587,0,0,1-944,282.759a19.155,19.155,0,0,1-8.025,1.651A19.442,19.442,0,0,1-961.427,282.189Zm5.576-23.2a6,6,0,0,0-1.912,3.65h11.021a4.455,4.455,0,0,0-1.531-3.586,5.687,5.687,0,0,0-3.822-1.3A5.616,5.616,0,0,0-955.85,258.991Zm-89.476,23.2a16.392,16.392,0,0,1-6.657-6.347,18.827,18.827,0,0,1-2.421-9.711,18.516,18.516,0,0,1,2.453-9.646,16.613,16.613,0,0,1,6.687-6.347,20.332,20.332,0,0,1,9.589-2.221,20.321,20.321,0,0,1,9.588,2.221,16.644,16.644,0,0,1,6.692,6.347,18.548,18.548,0,0,1,2.45,9.646,18.722,18.722,0,0,1-2.45,9.679,16.541,16.541,0,0,1-6.723,6.379,20.5,20.5,0,0,1-9.619,2.221A20.327,20.327,0,0,1-1045.327,282.189Zm5.382-21.579a7.974,7.974,0,0,0-1.716,5.522,8.273,8.273,0,0,0,1.654,5.585,5.4,5.4,0,0,0,4.269,1.9,5.638,5.638,0,0,0,4.362-1.936,8,8,0,0,0,1.751-5.554,7.881,7.881,0,0,0-1.751-5.522,5.622,5.622,0,0,0-4.3-1.9A5.526,5.526,0,0,0-1039.945,260.609Zm-74.663,20.087a13.4,13.4,0,0,1-5.415-10.63h13.315a4.944,4.944,0,0,0,1.4,3.426,4.513,4.513,0,0,0,3.122,1.079,4.517,4.517,0,0,0,2.835-.857,2.831,2.831,0,0,0,1.115-2.38,3.367,3.367,0,0,0-1.848-3.047,32.714,32.714,0,0,0-5.989-2.412,54.025,54.025,0,0,1-7.1-2.824,13.624,13.624,0,0,1-4.714-4,11.064,11.064,0,0,1-2.007-6.887,12.525,12.525,0,0,1,2.166-7.393,13.4,13.4,0,0,1,5.989-4.665,22.424,22.424,0,0,1,8.664-1.587q7.835,0,12.518,3.65a13.106,13.106,0,0,1,5,10.249h-13.569a3.979,3.979,0,0,0-1.243-3.046,4.476,4.476,0,0,0-3.026-1.016,3.244,3.244,0,0,0-2.293.825,3.039,3.039,0,0,0-.892,2.348,2.893,2.893,0,0,0,.987,2.19,9.069,9.069,0,0,0,2.453,1.587q1.465.667,4.332,1.682a53.359,53.359,0,0,1,7.04,2.887,14.367,14.367,0,0,1,4.778,4,10.25,10.25,0,0,1,2.007,6.505,13.133,13.133,0,0,1-2.007,7.172,13.768,13.768,0,0,1-5.8,5.014,20.3,20.3,0,0,1-8.951,1.841Q-1109.575,284.41-1114.608,280.7Zm-36.6,1.492a15.981,15.981,0,0,1-6.433-6.347,19.441,19.441,0,0,1-2.327-9.711,19.471,19.471,0,0,1,2.3-9.679,15.814,15.814,0,0,1,6.4-6.314,19.583,19.583,0,0,1,9.461-2.221,19.721,19.721,0,0,1,9.365,2.157,15.578,15.578,0,0,1,6.371,6.188,18.863,18.863,0,0,1,2.293,9.488,22.388,22.388,0,0,1-.191,2.92h-23.636a6.541,6.541,0,0,0,1.625,4.348,4.974,4.974,0,0,0,3.664,1.427,4.592,4.592,0,0,0,4.459-2.793h13.315a15.5,15.5,0,0,1-3.218,6.569,16.582,16.582,0,0,1-6.018,4.538,19.183,19.183,0,0,1-8.029,1.651A19.43,19.43,0,0,1-1151.208,282.189Zm5.575-23.2a6.012,6.012,0,0,0-1.912,3.65h11.021a4.449,4.449,0,0,0-1.529-3.586,5.69,5.69,0,0,0-3.822-1.3A5.621,5.621,0,0,0-1145.633,258.991Zm-52.655,21.2q-3.6-4.093-3.6-11.138V248.36h12.423v19.1a6.757,6.757,0,0,0,1.625,4.792,5.585,5.585,0,0,0,4.3,1.746,5.571,5.571,0,0,0,4.332-1.746,6.846,6.846,0,0,0,1.591-4.792v-19.1h12.552v35.6h-12.552v-5.077a11.769,11.769,0,0,1-4.394,3.9,13.5,13.5,0,0,1-6.436,1.492A12.433,12.433,0,0,1-1198.288,280.189Zm210.773,3.776v-19.1a6.847,6.847,0,0,0-1.589-4.792,5.5,5.5,0,0,0-4.268-1.745,5.654,5.654,0,0,0-4.4,1.745,6.852,6.852,0,0,0-1.592,4.792v19.1h-12.488v-35.6h12.488v5.078a12.3,12.3,0,0,1,4.46-3.9,13.49,13.49,0,0,1,6.434-1.491,12.46,12.46,0,0,1,9.813,4.093q3.629,4.093,3.63,11.075v20.753Zm-76,0q-13.7,0-13.7-13.518V258.706h-4.4V248.36h4.4v-8.631h12.55v8.631h6.5v10.345h-6.5v11.931a2.789,2.789,0,0,0,.669,2.094,3.245,3.245,0,0,0,2.262.634h3.632v10.6Zm-157.738,0V237h12.485v46.965Zm-42.748,0V239.222h21.533q6.881,0,10.8,3.047a10.228,10.228,0,0,1,3.919,8.568,10.3,10.3,0,0,1-2.071,6.568,10.288,10.288,0,0,1-5.511,3.586,10.592,10.592,0,0,1,6.275,3.9,10.971,10.971,0,0,1,2.326,6.887,10.937,10.937,0,0,1-3.95,8.949q-3.951,3.236-11.084,3.236Zm12.487-10.028h7.263q4.714,0,4.714-3.935a3.9,3.9,0,0,0-1.242-3.109,5.226,5.226,0,0,0-3.536-1.079h-7.2Zm0-16.945h6.307q4.714,0,4.714-3.872,0-4-4.714-4h-6.307Z" transform="translate(1264 -237)" fill="#d8d8d8"/>
</svg>
